<svg width="64" height="64" viewBox="0 0 64 64" xmlns="http://www.w3.org/2000/svg">
  <path d="M32 1C15.432 1 2 14.432 2 31c0 13.554 8.756 25.036 20.75 29c1.531.281 2.094-.656 2.094-1.469 0-.719-.031-3.094-.031-5.625-5.375.969-6.5-2.375-6.5-2.375-1.156-2.969-2.844-3.75-2.844-3.75-2.344-1.594.156-1.562.156-1.562 2.563.188 3.906 2.625 3.906 2.625 2.281 3.906 5.969 2.781 7.438 2.125.219-1.656.875-2.781 1.594-3.406-5.594-.625-11.5-2.781-11.5-12.406 0-2.75.969-5 2.625-6.75-.281-.656-1.156-3.281.25-6.844 0 0 2.125-.687 7 2.625a23.74 23.74 0 0 1 6.25-.844c2.125 0 4.25.281 6.25.844 4.875-3.312 7-2.625 7-2.625 1.406 3.563.531 6.188.25 6.844 1.656 1.75 2.625 4 2.625 6.75 0 9.656-5.906 11.781-11.531 12.406.906.781 1.719 2.344 1.719 4.719 0 3.406-.031 6.156-.031 7 0 .688.469 1.469 2.094 1.469C53.244 56.036 62 44.554 62 31 62 14.432 48.568 1 32 1Z" fill="#f0f6fc"/>
</svg>